<?xml version="1.0" encoding="UTF-8"?>
<!-- Generator: Adobe Illustrator 16.0.0, SVG Export Plug-In . SVG Version: 6.00 Build 0)  -->
<!DOCTYPE svg PUBLIC "-//W3C//DTD SVG 1.1//EN" "http://www.w3.org/Graphics/SVG/1.1/DTD/svg11.dtd">
<svg version="1.1" id="Layer_1" xmlns="http://www.w3.org/2000/svg" xmlns:xlink="http://www.w3.org/1999/xlink" x="0px" y="0px" width="188.141px" height="21.637px" viewBox="0 0 188.141 21.637" enable-background="new 0 0 188.141 21.637" xml:space="preserve">
<g>
	<g>
		<rect fill="#E73137" width="10.223" height="20.818"/>
	</g>
	<g>
		<rect x="32.899" fill="#E73137" width="10.223" height="20.818"/>
	</g>
	<g>
		<path fill="#E73137" d="M20.143,4.328l1.461-2.973l1.45,2.863c0.181,0.303,0.326,0.278,0.616,0.133l1.245-0.616l-0.81,3.999    c-0.169,0.785,0.278,1.016,0.761,0.482l1.776-1.896l0.47,1.075c0.158,0.326,0.399,0.277,0.713,0.217l1.836-0.387l-0.616,2.32    l-0.013,0.048c-0.072,0.303-0.217,0.556,0.122,0.701l0.652,0.326l-3.782,3.202c-0.386,0.398-0.253,0.52-0.108,0.967l0.35,1.074    l-3.527-0.641c-0.435-0.109-0.737-0.109-0.749,0.242l0.145,4.047h-1.062l0.146-4.035c0-0.398-0.303-0.387-1.016-0.241    l-3.262,0.628l0.423-1.074c0.144-0.412,0.181-0.689-0.146-0.967l-3.866-3.154l0.713-0.435c0.206-0.157,0.217-0.326,0.109-0.677    l-0.725-2.355l1.861,0.398c0.519,0.121,0.664,0,0.796-0.29l0.52-1.063l1.836,2.079c0.327,0.386,0.786,0.132,0.641-0.424    l-0.882-4.337l1.365,0.785c0.217,0.133,0.447,0.17,0.58-0.084"/>
	</g>
</g>
<g>
	<path d="M66.308,1.347v1.025h-2.9v7.582h-1.178V2.372h-2.9V1.347H66.308z"/>
	<path d="M67.141,3.679h1.002v1.084c0.082-0.211,0.283-0.468,0.604-0.771s0.689-0.454,1.107-0.454c0.02,0,0.053,0.002,0.1,0.006   s0.127,0.012,0.24,0.023v1.113c-0.062-0.012-0.12-0.02-0.173-0.023s-0.11-0.006-0.173-0.006c-0.531,0-0.939,0.171-1.225,0.513   s-0.428,0.735-0.428,1.181v3.609h-1.055V3.679z"/>
	<path d="M74.783,6.156c0.242-0.031,0.404-0.132,0.486-0.304c0.047-0.094,0.07-0.229,0.07-0.406c0-0.361-0.128-0.623-0.383-0.785   c-0.255-0.163-0.621-0.244-1.097-0.244c-0.55,0-0.939,0.149-1.169,0.447c-0.129,0.165-0.212,0.411-0.251,0.736h-0.984   c0.02-0.775,0.27-1.315,0.752-1.619c0.482-0.304,1.041-0.456,1.677-0.456c0.737,0,1.336,0.141,1.797,0.422   c0.457,0.281,0.685,0.719,0.685,1.312v3.616c0,0.109,0.022,0.197,0.067,0.263c0.045,0.066,0.14,0.1,0.284,0.1   c0.047,0,0.1-0.003,0.158-0.009s0.121-0.015,0.188-0.026v0.779c-0.164,0.047-0.289,0.076-0.375,0.088s-0.203,0.018-0.352,0.018   c-0.363,0-0.627-0.129-0.791-0.387c-0.086-0.137-0.146-0.33-0.182-0.58c-0.215,0.281-0.523,0.525-0.926,0.732   s-0.846,0.311-1.33,0.311c-0.582,0-1.058-0.177-1.427-0.53S71.127,8.84,71.127,8.31c0-0.582,0.182-1.032,0.545-1.352   s0.84-0.517,1.43-0.591L74.783,6.156z M72.562,9.005c0.223,0.176,0.486,0.263,0.791,0.263c0.371,0,0.73-0.086,1.078-0.257   c0.586-0.285,0.879-0.751,0.879-1.398V6.765c-0.129,0.083-0.294,0.151-0.497,0.206c-0.203,0.055-0.401,0.094-0.597,0.117   L73.58,7.17c-0.382,0.051-0.669,0.13-0.862,0.24c-0.326,0.183-0.489,0.476-0.489,0.877C72.229,8.59,72.34,8.83,72.562,9.005z"/>
	<path d="M78.406,3.679h1.002v0.891c0.297-0.367,0.611-0.631,0.943-0.791s0.701-0.24,1.107-0.24c0.891,0,1.492,0.311,1.805,0.932   c0.172,0.34,0.258,0.826,0.258,1.459v4.025h-1.072V5.999c0-0.383-0.057-0.691-0.17-0.926c-0.188-0.391-0.527-0.586-1.02-0.586   c-0.25,0-0.455,0.025-0.615,0.076c-0.289,0.086-0.543,0.258-0.762,0.516c-0.176,0.207-0.29,0.421-0.343,0.642   S79.46,6.257,79.46,6.667v3.287h-1.055V3.679z"/>
	<path d="M86.019,7.985c0.032,0.352,0.122,0.621,0.269,0.809c0.271,0.34,0.742,0.51,1.412,0.51c0.398,0,0.749-0.085,1.052-0.255   s0.455-0.433,0.455-0.788c0-0.27-0.121-0.475-0.363-0.615c-0.155-0.086-0.46-0.186-0.917-0.299l-0.852-0.211   c-0.544-0.133-0.945-0.281-1.203-0.445c-0.46-0.285-0.691-0.68-0.691-1.184c0-0.594,0.217-1.074,0.65-1.441   c0.433-0.367,1.016-0.551,1.749-0.551c0.958,0,1.649,0.277,2.072,0.832c0.265,0.352,0.394,0.73,0.386,1.137h-0.996   c-0.02-0.237-0.106-0.453-0.258-0.647c-0.248-0.275-0.678-0.414-1.29-0.414c-0.408,0-0.717,0.076-0.927,0.228   s-0.315,0.353-0.315,0.602c0,0.272,0.138,0.49,0.414,0.654c0.159,0.097,0.394,0.183,0.704,0.257l0.71,0.17   c0.772,0.184,1.29,0.361,1.552,0.533c0.41,0.27,0.615,0.693,0.615,1.271c0,0.559-0.215,1.041-0.644,1.447   c-0.429,0.406-1.083,0.609-1.961,0.609c-0.945,0-1.614-0.212-2.008-0.636s-0.604-0.948-0.632-1.573H86.019z"/>
	<path d="M91.616,3.708h1.031V4.54c0.211-0.285,0.442-0.506,0.693-0.662c0.356-0.234,0.775-0.352,1.257-0.352   c0.713,0,1.318,0.272,1.815,0.817s0.746,1.323,0.746,2.335c0,1.367-0.359,2.344-1.077,2.93c-0.455,0.371-0.984,0.557-1.588,0.557   c-0.475,0-0.873-0.104-1.194-0.311c-0.188-0.117-0.398-0.318-0.629-0.604v3.205h-1.055V3.708z M95.584,8.627   c0.327-0.412,0.491-1.028,0.491-1.849c0-0.5-0.072-0.93-0.218-1.289c-0.274-0.691-0.776-1.037-1.505-1.037   c-0.733,0-1.235,0.365-1.505,1.096c-0.146,0.391-0.218,0.887-0.218,1.488c0,0.484,0.072,0.896,0.218,1.236   c0.274,0.648,0.776,0.973,1.505,0.973C94.846,9.245,95.256,9.039,95.584,8.627z"/>
	<path d="M103.236,4.305c0.555,0.539,0.832,1.331,0.832,2.376c0,1.011-0.245,1.846-0.733,2.506c-0.488,0.66-1.247,0.989-2.274,0.989   c-0.857,0-1.538-0.292-2.042-0.875s-0.756-1.367-0.756-2.351c0-1.054,0.266-1.893,0.797-2.518c0.532-0.624,1.245-0.937,2.141-0.937   C102.003,3.497,102.682,3.767,103.236,4.305z M102.582,8.476c0.257-0.529,0.385-1.117,0.385-1.765c0-0.585-0.093-1.061-0.278-1.428   c-0.293-0.578-0.799-0.866-1.518-0.866c-0.638,0-1.101,0.246-1.391,0.737s-0.435,1.085-0.435,1.779   c0,0.667,0.145,1.223,0.435,1.668s0.749,0.667,1.379,0.667C101.851,9.269,102.325,9.004,102.582,8.476z"/>
	<path d="M105.705,3.679h1.002v1.084c0.082-0.211,0.283-0.468,0.604-0.771s0.689-0.454,1.107-0.454c0.02,0,0.053,0.002,0.1,0.006   s0.127,0.012,0.24,0.023v1.113c-0.062-0.012-0.12-0.02-0.173-0.023s-0.11-0.006-0.173-0.006c-0.531,0-0.939,0.171-1.225,0.513   s-0.428,0.735-0.428,1.181v3.609h-1.055V3.679z"/>
	<path d="M110.194,1.927h1.066v1.752h1.002V4.54h-1.002v4.096c0,0.219,0.074,0.365,0.223,0.439c0.082,0.043,0.219,0.064,0.41,0.064   c0.051,0,0.105-0.001,0.164-0.004s0.127-0.009,0.205-0.02v0.838c-0.121,0.035-0.247,0.061-0.378,0.076s-0.272,0.023-0.425,0.023   c-0.492,0-0.826-0.126-1.002-0.378s-0.264-0.579-0.264-0.981V4.54h-0.85V3.679h0.85V1.927z"/>
	<path d="M114.256,7.985c0.032,0.352,0.122,0.621,0.269,0.809c0.271,0.34,0.742,0.51,1.412,0.51c0.398,0,0.749-0.085,1.052-0.255   s0.455-0.433,0.455-0.788c0-0.27-0.121-0.475-0.363-0.615c-0.155-0.086-0.46-0.186-0.917-0.299l-0.852-0.211   c-0.544-0.133-0.945-0.281-1.203-0.445c-0.46-0.285-0.691-0.68-0.691-1.184c0-0.594,0.217-1.074,0.65-1.441   c0.433-0.367,1.016-0.551,1.749-0.551c0.958,0,1.649,0.277,2.072,0.832c0.265,0.352,0.394,0.73,0.386,1.137h-0.996   c-0.02-0.237-0.106-0.453-0.258-0.647c-0.248-0.275-0.678-0.414-1.29-0.414c-0.408,0-0.717,0.076-0.927,0.228   s-0.315,0.353-0.315,0.602c0,0.272,0.138,0.49,0.414,0.654c0.159,0.097,0.394,0.183,0.704,0.257l0.71,0.17   c0.772,0.184,1.29,0.361,1.552,0.533c0.41,0.27,0.615,0.693,0.615,1.271c0,0.559-0.215,1.041-0.644,1.447   c-0.429,0.406-1.083,0.609-1.961,0.609c-0.945,0-1.614-0.212-2.008-0.636s-0.604-0.948-0.632-1.573H114.256z"/>
	<path d="M66.138,12.974c0.594,0.574,0.925,1.227,0.99,1.957h-1.137c-0.126-0.555-0.379-0.994-0.757-1.318s-0.908-0.486-1.591-0.486   c-0.833,0-1.505,0.298-2.017,0.895c-0.512,0.596-0.768,1.51-0.768,2.741c0,1.009,0.231,1.827,0.693,2.454   c0.462,0.628,1.152,0.941,2.069,0.941c0.844,0,1.487-0.33,1.928-0.99c0.234-0.348,0.409-0.805,0.524-1.371h1.137   c-0.101,0.906-0.433,1.666-0.996,2.279c-0.676,0.738-1.587,1.107-2.734,1.107c-0.989,0-1.819-0.303-2.491-0.909   c-0.884-0.801-1.326-2.039-1.326-3.711c0-1.271,0.332-2.312,0.996-3.125c0.718-0.883,1.708-1.325,2.971-1.325   C64.707,12.112,65.543,12.399,66.138,12.974z"/>
	<path d="M72.25,17.156c0.242-0.031,0.404-0.132,0.486-0.304c0.047-0.094,0.07-0.229,0.07-0.406c0-0.361-0.128-0.623-0.383-0.785   c-0.255-0.163-0.621-0.244-1.097-0.244c-0.55,0-0.939,0.149-1.169,0.447c-0.129,0.165-0.212,0.411-0.251,0.736h-0.984   c0.02-0.775,0.27-1.315,0.752-1.619c0.482-0.304,1.041-0.456,1.677-0.456c0.737,0,1.336,0.141,1.797,0.422   c0.457,0.281,0.685,0.719,0.685,1.312v3.616c0,0.109,0.022,0.197,0.067,0.263c0.045,0.066,0.14,0.1,0.284,0.1   c0.047,0,0.1-0.003,0.158-0.009s0.121-0.015,0.188-0.026v0.779c-0.164,0.047-0.289,0.076-0.375,0.088s-0.203,0.018-0.352,0.018   c-0.363,0-0.627-0.129-0.791-0.387c-0.086-0.137-0.146-0.33-0.182-0.58c-0.215,0.281-0.523,0.525-0.926,0.732   s-0.846,0.311-1.33,0.311c-0.582,0-1.058-0.177-1.427-0.53s-0.554-0.795-0.554-1.325c0-0.582,0.182-1.032,0.545-1.352   s0.84-0.517,1.43-0.591L72.25,17.156z M70.03,20.005c0.223,0.176,0.486,0.263,0.791,0.263c0.371,0,0.73-0.086,1.078-0.257   c0.586-0.285,0.879-0.751,0.879-1.398v-0.848c-0.129,0.083-0.294,0.151-0.497,0.206c-0.203,0.055-0.401,0.094-0.597,0.117   l-0.637,0.082c-0.382,0.051-0.669,0.13-0.862,0.24c-0.326,0.183-0.489,0.476-0.489,0.877C69.696,19.59,69.807,19.83,70.03,20.005z"/>
	<path d="M75.873,14.679h1.002v0.891c0.297-0.367,0.611-0.631,0.943-0.791s0.701-0.24,1.107-0.24c0.891,0,1.492,0.311,1.805,0.932   c0.172,0.34,0.258,0.826,0.258,1.459v4.025h-1.072v-3.955c0-0.383-0.057-0.691-0.17-0.926c-0.188-0.391-0.527-0.586-1.02-0.586   c-0.25,0-0.455,0.025-0.615,0.076c-0.289,0.086-0.543,0.258-0.762,0.516c-0.176,0.207-0.29,0.421-0.343,0.642   s-0.079,0.536-0.079,0.946v3.287h-1.055V14.679z"/>
	<path d="M86.222,17.156c0.242-0.031,0.404-0.132,0.486-0.304c0.047-0.094,0.07-0.229,0.07-0.406c0-0.361-0.128-0.623-0.383-0.785   c-0.255-0.163-0.621-0.244-1.097-0.244c-0.55,0-0.939,0.149-1.169,0.447c-0.129,0.165-0.212,0.411-0.251,0.736h-0.984   c0.02-0.775,0.27-1.315,0.752-1.619c0.482-0.304,1.041-0.456,1.677-0.456c0.737,0,1.336,0.141,1.797,0.422   c0.457,0.281,0.685,0.719,0.685,1.312v3.616c0,0.109,0.022,0.197,0.067,0.263c0.045,0.066,0.14,0.1,0.284,0.1   c0.047,0,0.1-0.003,0.158-0.009s0.121-0.015,0.188-0.026v0.779c-0.164,0.047-0.289,0.076-0.375,0.088s-0.203,0.018-0.352,0.018   c-0.363,0-0.627-0.129-0.791-0.387c-0.086-0.137-0.146-0.33-0.182-0.58c-0.215,0.281-0.523,0.525-0.926,0.732   s-0.846,0.311-1.33,0.311c-0.582,0-1.058-0.177-1.427-0.53s-0.554-0.795-0.554-1.325c0-0.582,0.182-1.032,0.545-1.352   s0.84-0.517,1.43-0.591L86.222,17.156z M84.001,20.005c0.223,0.176,0.486,0.263,0.791,0.263c0.371,0,0.73-0.086,1.078-0.257   c0.586-0.285,0.879-0.751,0.879-1.398v-0.848c-0.129,0.083-0.294,0.151-0.497,0.206c-0.203,0.055-0.401,0.094-0.597,0.117   l-0.637,0.082c-0.382,0.051-0.669,0.13-0.862,0.24c-0.326,0.183-0.489,0.476-0.489,0.877C83.667,19.59,83.779,19.83,84.001,20.005z   "/>
	<path d="M93.292,14.872c0.187,0.117,0.399,0.322,0.636,0.615v-3.17h1.014v8.637h-0.949v-0.873c-0.245,0.387-0.535,0.666-0.87,0.838   c-0.335,0.172-0.718,0.258-1.15,0.258c-0.697,0-1.3-0.294-1.81-0.882s-0.765-1.37-0.765-2.347c0-0.914,0.232-1.706,0.697-2.376   c0.465-0.67,1.129-1.005,1.994-1.005C92.569,14.567,92.97,14.669,93.292,14.872z M90.938,19.577c0.284,0.453,0.738,0.68,1.364,0.68   c0.486,0,0.885-0.21,1.198-0.63s0.469-1.022,0.469-1.808c0-0.793-0.161-1.38-0.484-1.761s-0.721-0.571-1.195-0.571   c-0.528,0-0.957,0.203-1.285,0.609c-0.329,0.406-0.493,1.004-0.493,1.793C90.513,18.562,90.654,19.124,90.938,19.577z"/>
	<path d="M100.194,17.156c0.242-0.031,0.404-0.132,0.486-0.304c0.047-0.094,0.07-0.229,0.07-0.406c0-0.361-0.128-0.623-0.383-0.785   c-0.255-0.163-0.621-0.244-1.097-0.244c-0.55,0-0.939,0.149-1.169,0.447c-0.129,0.165-0.212,0.411-0.251,0.736h-0.984   c0.02-0.775,0.27-1.315,0.752-1.619c0.482-0.304,1.041-0.456,1.677-0.456c0.737,0,1.336,0.141,1.797,0.422   c0.457,0.281,0.685,0.719,0.685,1.312v3.616c0,0.109,0.022,0.197,0.067,0.263c0.045,0.066,0.14,0.1,0.284,0.1   c0.047,0,0.1-0.003,0.158-0.009s0.121-0.015,0.188-0.026v0.779c-0.164,0.047-0.289,0.076-0.375,0.088s-0.203,0.018-0.352,0.018   c-0.363,0-0.627-0.129-0.791-0.387c-0.086-0.137-0.146-0.33-0.182-0.58c-0.215,0.281-0.523,0.525-0.926,0.732   s-0.846,0.311-1.33,0.311c-0.582,0-1.058-0.177-1.427-0.53s-0.554-0.795-0.554-1.325c0-0.582,0.182-1.032,0.545-1.352   s0.84-0.517,1.43-0.591L100.194,17.156z M97.973,20.005c0.223,0.176,0.486,0.263,0.791,0.263c0.371,0,0.73-0.086,1.078-0.257   c0.586-0.285,0.879-0.751,0.879-1.398v-0.848c-0.129,0.083-0.294,0.151-0.497,0.206c-0.203,0.055-0.401,0.094-0.597,0.117   L98.99,18.17c-0.382,0.051-0.669,0.13-0.862,0.24c-0.326,0.183-0.489,0.476-0.489,0.877C97.639,19.59,97.75,19.83,97.973,20.005z"/>
</g>
<g>
	<path d="M142.186,1.801v1.025h-2.9v7.582h-1.178V2.827h-2.9V1.801H142.186z"/>
	<path d="M143.02,4.133h1.002v1.084c0.082-0.211,0.283-0.468,0.604-0.771s0.689-0.454,1.107-0.454c0.02,0,0.053,0.002,0.1,0.006   s0.127,0.012,0.24,0.023v1.113c-0.062-0.012-0.12-0.02-0.173-0.023s-0.11-0.006-0.173-0.006c-0.531,0-0.939,0.171-1.225,0.513   s-0.428,0.735-0.428,1.181v3.609h-1.055V4.133z"/>
	<path d="M150.662,6.611c0.242-0.031,0.404-0.132,0.486-0.304c0.047-0.094,0.07-0.229,0.07-0.406c0-0.361-0.128-0.623-0.383-0.785   c-0.255-0.163-0.621-0.244-1.097-0.244c-0.55,0-0.939,0.149-1.169,0.447c-0.129,0.165-0.212,0.411-0.251,0.736h-0.984   c0.02-0.775,0.27-1.315,0.752-1.619c0.482-0.304,1.041-0.456,1.677-0.456c0.737,0,1.336,0.141,1.797,0.422   c0.457,0.281,0.685,0.719,0.685,1.312v3.616c0,0.109,0.022,0.197,0.067,0.263c0.045,0.066,0.14,0.1,0.284,0.1   c0.047,0,0.1-0.003,0.158-0.009s0.121-0.015,0.188-0.026v0.779c-0.164,0.047-0.289,0.076-0.375,0.088s-0.203,0.018-0.352,0.018   c-0.363,0-0.627-0.129-0.791-0.387c-0.086-0.137-0.146-0.33-0.182-0.58c-0.215,0.281-0.523,0.525-0.926,0.732   s-0.846,0.311-1.33,0.311c-0.582,0-1.058-0.177-1.427-0.53s-0.554-0.795-0.554-1.325c0-0.582,0.182-1.032,0.545-1.352   s0.84-0.517,1.43-0.591L150.662,6.611z M148.441,9.46c0.223,0.176,0.486,0.263,0.791,0.263c0.371,0,0.73-0.086,1.078-0.257   c0.586-0.285,0.879-0.751,0.879-1.398V7.219c-0.129,0.083-0.294,0.151-0.497,0.206c-0.203,0.055-0.401,0.094-0.597,0.117   l-0.637,0.082c-0.382,0.051-0.669,0.13-0.862,0.24c-0.326,0.183-0.489,0.476-0.489,0.877C148.107,9.045,148.218,9.285,148.441,9.46   z"/>
	<path d="M154.284,4.133h1.002v0.891c0.297-0.367,0.611-0.631,0.943-0.791s0.701-0.24,1.107-0.24c0.891,0,1.492,0.311,1.805,0.932   c0.172,0.34,0.258,0.826,0.258,1.459v4.025h-1.072V6.454c0-0.383-0.057-0.691-0.17-0.926c-0.188-0.391-0.527-0.586-1.02-0.586   c-0.25,0-0.455,0.025-0.615,0.076c-0.289,0.086-0.543,0.258-0.762,0.516c-0.176,0.207-0.29,0.421-0.343,0.642   s-0.079,0.536-0.079,0.946v3.287h-1.055V4.133z"/>
	<path d="M161.897,8.44c0.032,0.352,0.122,0.621,0.269,0.809c0.271,0.34,0.742,0.51,1.412,0.51c0.398,0,0.749-0.085,1.052-0.255   s0.455-0.433,0.455-0.788c0-0.27-0.121-0.475-0.363-0.615c-0.155-0.086-0.46-0.186-0.917-0.299l-0.852-0.211   c-0.544-0.133-0.945-0.281-1.203-0.445c-0.46-0.285-0.691-0.68-0.691-1.184c0-0.594,0.217-1.074,0.65-1.441   c0.433-0.367,1.016-0.551,1.749-0.551c0.958,0,1.649,0.277,2.072,0.832c0.265,0.352,0.394,0.73,0.386,1.137h-0.996   c-0.02-0.237-0.106-0.453-0.258-0.647c-0.248-0.275-0.678-0.414-1.29-0.414c-0.408,0-0.717,0.076-0.927,0.228   s-0.315,0.353-0.315,0.602c0,0.272,0.138,0.49,0.414,0.654c0.159,0.097,0.394,0.183,0.704,0.257l0.71,0.17   c0.772,0.184,1.29,0.361,1.552,0.533c0.41,0.27,0.615,0.693,0.615,1.271c0,0.559-0.215,1.041-0.644,1.447   c-0.429,0.406-1.083,0.609-1.961,0.609c-0.945,0-1.614-0.212-2.008-0.636s-0.604-0.948-0.632-1.573H161.897z"/>
	<path d="M167.494,4.163h1.031v0.832c0.211-0.285,0.442-0.506,0.693-0.662c0.356-0.234,0.775-0.352,1.257-0.352   c0.713,0,1.318,0.272,1.815,0.817s0.746,1.323,0.746,2.335c0,1.367-0.359,2.344-1.077,2.93c-0.455,0.371-0.984,0.557-1.588,0.557   c-0.475,0-0.873-0.104-1.194-0.311c-0.188-0.117-0.398-0.318-0.629-0.604v3.205h-1.055V4.163z M171.462,9.082   c0.327-0.412,0.491-1.028,0.491-1.849c0-0.5-0.072-0.93-0.218-1.289c-0.274-0.691-0.776-1.037-1.505-1.037   c-0.733,0-1.235,0.365-1.505,1.096c-0.146,0.391-0.218,0.887-0.218,1.488c0,0.484,0.072,0.896,0.218,1.236   C169,9.375,169.501,9.7,170.23,9.7C170.724,9.7,171.135,9.494,171.462,9.082z"/>
	<path d="M179.115,4.76c0.555,0.539,0.832,1.331,0.832,2.376c0,1.011-0.245,1.846-0.733,2.506c-0.488,0.66-1.247,0.989-2.274,0.989   c-0.857,0-1.538-0.292-2.042-0.875s-0.756-1.367-0.756-2.351c0-1.054,0.266-1.893,0.797-2.518c0.532-0.624,1.245-0.937,2.141-0.937   C177.881,3.952,178.56,4.221,179.115,4.76z M178.46,8.93c0.257-0.529,0.385-1.117,0.385-1.765c0-0.585-0.093-1.061-0.278-1.428   c-0.293-0.578-0.799-0.866-1.518-0.866c-0.638,0-1.101,0.246-1.391,0.737s-0.435,1.085-0.435,1.779   c0,0.667,0.145,1.223,0.435,1.668s0.749,0.667,1.379,0.667C177.729,9.723,178.203,9.459,178.46,8.93z"/>
	<path d="M181.583,4.133h1.002v1.084c0.082-0.211,0.283-0.468,0.604-0.771s0.689-0.454,1.107-0.454c0.02,0,0.053,0.002,0.1,0.006   s0.127,0.012,0.24,0.023v1.113c-0.062-0.012-0.12-0.02-0.173-0.023s-0.11-0.006-0.173-0.006c-0.531,0-0.939,0.171-1.225,0.513   s-0.428,0.735-0.428,1.181v3.609h-1.055V4.133z"/>
	<path d="M186.073,2.381h1.066v1.752h1.002v0.861h-1.002V9.09c0,0.219,0.074,0.365,0.223,0.439c0.082,0.043,0.219,0.064,0.41,0.064   c0.051,0,0.105-0.001,0.164-0.004s0.127-0.009,0.205-0.02v0.838c-0.121,0.035-0.247,0.061-0.378,0.076s-0.272,0.023-0.425,0.023   c-0.492,0-0.826-0.126-1.002-0.378s-0.264-0.579-0.264-0.981V4.995h-0.85V4.133h0.85V2.381z"/>
	<path d="M142.016,13.428c0.594,0.574,0.925,1.227,0.99,1.957h-1.137c-0.126-0.555-0.379-0.994-0.757-1.318   s-0.908-0.486-1.591-0.486c-0.833,0-1.505,0.298-2.017,0.895c-0.512,0.596-0.768,1.51-0.768,2.741c0,1.009,0.231,1.827,0.693,2.454   c0.462,0.628,1.152,0.941,2.069,0.941c0.844,0,1.487-0.33,1.928-0.99c0.234-0.348,0.409-0.805,0.524-1.371h1.137   c-0.101,0.906-0.433,1.666-0.996,2.279c-0.676,0.738-1.587,1.107-2.734,1.107c-0.989,0-1.819-0.303-2.491-0.909   c-0.884-0.801-1.326-2.039-1.326-3.711c0-1.271,0.332-2.312,0.996-3.125c0.718-0.883,1.708-1.325,2.971-1.325   C140.585,12.567,141.421,12.854,142.016,13.428z"/>
	<path d="M148.129,17.611c0.242-0.031,0.404-0.132,0.486-0.304c0.047-0.094,0.07-0.229,0.07-0.406c0-0.361-0.128-0.623-0.383-0.785   c-0.255-0.163-0.621-0.244-1.097-0.244c-0.55,0-0.939,0.149-1.169,0.447c-0.129,0.165-0.212,0.411-0.251,0.736h-0.984   c0.02-0.775,0.27-1.315,0.752-1.619c0.482-0.304,1.041-0.456,1.677-0.456c0.737,0,1.336,0.141,1.797,0.422   c0.457,0.281,0.685,0.719,0.685,1.312v3.616c0,0.109,0.022,0.197,0.067,0.263c0.045,0.066,0.14,0.1,0.284,0.1   c0.047,0,0.1-0.003,0.158-0.009s0.121-0.015,0.188-0.026v0.779c-0.164,0.047-0.289,0.076-0.375,0.088s-0.203,0.018-0.352,0.018   c-0.363,0-0.627-0.129-0.791-0.387c-0.086-0.137-0.146-0.33-0.182-0.58c-0.215,0.281-0.523,0.525-0.926,0.732   s-0.846,0.311-1.33,0.311c-0.582,0-1.058-0.177-1.427-0.53s-0.554-0.795-0.554-1.325c0-0.582,0.182-1.032,0.545-1.352   s0.84-0.517,1.43-0.591L148.129,17.611z M145.908,20.46c0.223,0.176,0.486,0.263,0.791,0.263c0.371,0,0.73-0.086,1.078-0.257   c0.586-0.285,0.879-0.751,0.879-1.398v-0.848c-0.129,0.083-0.294,0.151-0.497,0.206c-0.203,0.055-0.401,0.094-0.597,0.117   l-0.637,0.082c-0.382,0.051-0.669,0.13-0.862,0.24c-0.326,0.183-0.489,0.476-0.489,0.877   C145.574,20.045,145.686,20.285,145.908,20.46z"/>
	<path d="M151.751,15.133h1.002v0.891c0.297-0.367,0.611-0.631,0.943-0.791s0.701-0.24,1.107-0.24c0.891,0,1.492,0.311,1.805,0.932   c0.172,0.34,0.258,0.826,0.258,1.459v4.025h-1.072v-3.955c0-0.383-0.057-0.691-0.17-0.926c-0.188-0.391-0.527-0.586-1.02-0.586   c-0.25,0-0.455,0.025-0.615,0.076c-0.289,0.086-0.543,0.258-0.762,0.516c-0.176,0.207-0.29,0.421-0.343,0.642   s-0.079,0.536-0.079,0.946v3.287h-1.055V15.133z"/>
	<path d="M162.101,17.611c0.242-0.031,0.404-0.132,0.486-0.304c0.047-0.094,0.07-0.229,0.07-0.406c0-0.361-0.128-0.623-0.383-0.785   c-0.255-0.163-0.621-0.244-1.097-0.244c-0.55,0-0.939,0.149-1.169,0.447c-0.129,0.165-0.212,0.411-0.251,0.736h-0.984   c0.02-0.775,0.27-1.315,0.752-1.619c0.482-0.304,1.041-0.456,1.677-0.456c0.737,0,1.336,0.141,1.797,0.422   c0.457,0.281,0.685,0.719,0.685,1.312v3.616c0,0.109,0.022,0.197,0.067,0.263c0.045,0.066,0.14,0.1,0.284,0.1   c0.047,0,0.1-0.003,0.158-0.009s0.121-0.015,0.188-0.026v0.779c-0.164,0.047-0.289,0.076-0.375,0.088s-0.203,0.018-0.352,0.018   c-0.363,0-0.627-0.129-0.791-0.387c-0.086-0.137-0.146-0.33-0.182-0.58c-0.215,0.281-0.523,0.525-0.926,0.732   s-0.846,0.311-1.33,0.311c-0.582,0-1.058-0.177-1.427-0.53s-0.554-0.795-0.554-1.325c0-0.582,0.182-1.032,0.545-1.352   s0.84-0.517,1.43-0.591L162.101,17.611z M159.88,20.46c0.223,0.176,0.486,0.263,0.791,0.263c0.371,0,0.73-0.086,1.078-0.257   c0.586-0.285,0.879-0.751,0.879-1.398v-0.848c-0.129,0.083-0.294,0.151-0.497,0.206c-0.203,0.055-0.401,0.094-0.597,0.117   l-0.637,0.082c-0.382,0.051-0.669,0.13-0.862,0.24c-0.326,0.183-0.489,0.476-0.489,0.877   C159.546,20.045,159.657,20.285,159.88,20.46z"/>
	<path d="M169.171,15.327c0.187,0.117,0.399,0.322,0.636,0.615v-3.17h1.014v8.637h-0.949v-0.873   c-0.245,0.387-0.535,0.666-0.87,0.838c-0.335,0.172-0.718,0.258-1.15,0.258c-0.697,0-1.3-0.294-1.81-0.882s-0.765-1.37-0.765-2.347   c0-0.914,0.232-1.706,0.697-2.376c0.465-0.67,1.129-1.005,1.994-1.005C168.447,15.022,168.848,15.124,169.171,15.327z    M166.817,20.032c0.284,0.453,0.738,0.68,1.364,0.68c0.486,0,0.885-0.21,1.198-0.63s0.469-1.022,0.469-1.808   c0-0.793-0.161-1.38-0.484-1.761s-0.721-0.571-1.195-0.571c-0.528,0-0.957,0.203-1.285,0.609c-0.329,0.406-0.493,1.004-0.493,1.793   C166.391,19.016,166.533,19.579,166.817,20.032z"/>
	<path d="M176.072,17.611c0.242-0.031,0.404-0.132,0.486-0.304c0.047-0.094,0.07-0.229,0.07-0.406c0-0.361-0.128-0.623-0.383-0.785   c-0.255-0.163-0.621-0.244-1.097-0.244c-0.55,0-0.939,0.149-1.169,0.447c-0.129,0.165-0.212,0.411-0.251,0.736h-0.984   c0.02-0.775,0.27-1.315,0.752-1.619c0.482-0.304,1.041-0.456,1.677-0.456c0.737,0,1.336,0.141,1.797,0.422   c0.457,0.281,0.685,0.719,0.685,1.312v3.616c0,0.109,0.022,0.197,0.067,0.263c0.045,0.066,0.14,0.1,0.284,0.1   c0.047,0,0.1-0.003,0.158-0.009s0.121-0.015,0.188-0.026v0.779c-0.164,0.047-0.289,0.076-0.375,0.088s-0.203,0.018-0.352,0.018   c-0.363,0-0.627-0.129-0.791-0.387c-0.086-0.137-0.146-0.33-0.182-0.58c-0.215,0.281-0.523,0.525-0.926,0.732   s-0.846,0.311-1.33,0.311c-0.582,0-1.058-0.177-1.427-0.53s-0.554-0.795-0.554-1.325c0-0.582,0.182-1.032,0.545-1.352   s0.84-0.517,1.43-0.591L176.072,17.611z M173.852,20.46c0.223,0.176,0.486,0.263,0.791,0.263c0.371,0,0.73-0.086,1.078-0.257   c0.586-0.285,0.879-0.751,0.879-1.398v-0.848c-0.129,0.083-0.294,0.151-0.497,0.206c-0.203,0.055-0.401,0.094-0.597,0.117   l-0.637,0.082c-0.382,0.051-0.669,0.13-0.862,0.24c-0.326,0.183-0.489,0.476-0.489,0.877   C173.518,20.045,173.629,20.285,173.852,20.46z"/>
</g>
</svg>